HIERARCHY
ROOT Hips
{
  OFFSET 50.6965 102.792 -16.4414
  CHANNELS 6 Xposition Yposition Zposition Zrotation Xrotation Yrotation
  JOINT RightUpLeg
  {
    OFFSET -9 6.86154e-007 -3.19544e-009
    CHANNELS 6 Xposition Yposition Zposition Zrotation Xrotation Yrotation
    JOINT RightLowLeg
    {
      OFFSET 0.575 -51.4311 3.90177
      CHANNELS 6 Xposition Yposition Zposition Zrotation Xrotation Yrotation
      JOINT RightFoot
      {
        OFFSET -7.46079e-007 -43.5882 -3.90177
        CHANNELS 6 Xposition Yposition Zposition Zrotation Xrotation Yrotation
        End Site
        {
          OFFSET 4.66716e-007 -6.93413 15.0046
        }
      }
    }
  }
  JOINT Chest
  {
    OFFSET 1.23234e-007 14.8421 1.27319e-009
    CHANNELS 6 Xposition Yposition Zposition Zrotation Xrotation Yrotation
    JOINT Neck
    {
      OFFSET 0.51659 29.8236 6.51843
      CHANNELS 6 Xposition Yposition Zposition Zrotation Xrotation Yrotation
      JOINT Head
      {
        OFFSET 1.16803e-007 7.47049 6.44171e-007
        CHANNELS 6 Xposition Yposition Zposition Zrotation Xrotation Yrotation
        End Site
        {
          OFFSET -4.32676e-008 16.2908 2.16786e-007
        }
      }
    }
    JOINT LeftCollar
    {
      OFFSET 6.64893 27.3161 3.27471
      CHANNELS 6 Xposition Yposition Zposition Zrotation Xrotation Yrotation
      JOINT LeftUpArm
      {
        OFFSET 10.8584 2.41798 -0.945791
        CHANNELS 6 Xposition Yposition Zposition Zrotation Xrotation Yrotation
        JOINT LeftLowArm
        {
          OFFSET 3.77631 -24.5904 -1.70468
          CHANNELS 6 Xposition Yposition Zposition Zrotation Xrotation Yrotation
          JOINT LeftHand
          {
            OFFSET 1.01026 -21.1231 1.74131
            CHANNELS 6 Xposition Yposition Zposition Zrotation Xrotation Yrotation
            End Site
            {
              OFFSET 1.17583e-006 -9.81266 -2.89439e-008
            }
          }
        }
      }
    }
    JOINT RightCollar
    {
      OFFSET -6.11406 27.2248 4.23427
      CHANNELS 6 Xposition Yposition Zposition Zrotation Xrotation Yrotation
      JOINT RightUpArm
      {
        OFFSET -10.4566 2.3285 -0.910794
        CHANNELS 6 Xposition Yposition Zposition Zrotation Xrotation Yrotation
        JOINT RightLowArm
        {
          OFFSET -3.86856 -25.191 -1.74633
          CHANNELS 6 Xposition Yposition Zposition Zrotation Xrotation Yrotation
          JOINT RightHand
          {
            OFFSET -1.04759 -20.6242 1.75213
            CHANNELS 6 Xposition Yposition Zposition Zrotation Xrotation Yrotation
            End Site
            {
              OFFSET -2.03487e-006 -9.50367 -4.31372e-006
            }
          }
        }
      }
    }
  }
  JOINT LeftUpLeg
  {
    OFFSET 9 -3.38008e-006 -5.23007e-009
    CHANNELS 6 Xposition Yposition Zposition Zrotation Xrotation Yrotation
    JOINT LeftLowLeg
    {
      OFFSET -0.575 -51.431 3.90177
      CHANNELS 6 Xposition Yposition Zposition Zrotation Xrotation Yrotation
      JOINT LeftFoot
      {
        OFFSET 2.13082e-007 -43.5882 -3.90177
        CHANNELS 6 Xposition Yposition Zposition Zrotation Xrotation Yrotation
        End Site
        {
          OFFSET 7.44796e-007 -6.93413 15.0046
        }
      }
    }
  }
}
MOTION
Frames:	12
Frame Time:	0.0333333
18.2094 78.8204 -94.0704 0.191013 -3.96606 -5.80051 -9 6.86154e-007 -3.19519e-009 -35.0118 -21.699 -25.0858 0.575 -51.4311 3.90177 -5.06053 48.2632 37.3473 -7.46079e-007 -43.5882 -3.90177 -17.1676 -12.7501 -0.199329 1.23234e-007 14.8421 1.27322e-009 -2.58199 2.69005 2.5613 0.51659 29.8236 6.51843 -1.96476 -2.58987 -1.16305 1.16803e-007 7.47049 6.44171e-007 5.49222 3.17388 -2.36887 6.64893 27.3161 3.27471 -2.94784 5.93879 -4.20517 10.8584 2.41798 -0.945791 4.92389 -64.5314 -20.7893 3.77631 -24.5904 -1.70468 20.9983 -22.0929 -15.7349 1.01026 -21.1231 1.74131 -0.0258602 -11.3916 -1.06089 -6.11406 27.2248 4.23427 -1.96452 7.32629 3.42623 -10.4566 2.3285 -0.910794 -12.9797 -64.6564 -0.697141 -3.86856 -25.191 -1.74633 -7.5776 -31.487 77.6599 -1.04759 -20.6242 1.75213 -5.53435 -3.6001 -0.442783 9 -3.38008e-006 -5.22969e-009 34.8961 -15.6994 25.6103 -0.575 -51.431 3.90177 -4.7579 57.724 -23.9151 2.13082e-007 -43.5882 -3.90177 14.684 -16.8518 0.641129 
18.1557 78.9537 -94.1499 0.397077 -3.86765 -5.76725 -9 6.86154e-007 -3.19504e-009 -35.1113 -21.7833 -25.1106 0.575 -51.4311 3.90177 -5.10759 48.1294 37.4373 -7.46079e-007 -43.5882 -3.90177 -17.0871 -12.5758 -0.173328 1.23234e-007 14.8421 1.27324e-009 -2.7926 2.64376 2.49946 0.51659 29.8236 6.51843 -2.19934 -2.53063 -1.10302 1.16803e-007 7.47049 6.44171e-007 5.8252 2.20436 -2.40619 6.64893 27.3161 3.27471 -2.94784 5.93879 -4.20517 10.8584 2.41798 -0.945791 5.02496 -64.0996 -20.1878 3.77631 -24.5904 -1.70468 20.5474 -22.6882 -15.836 1.01026 -21.1231 1.74131 0.0208401 -11.2492 -1.04163 -6.11406 27.2248 4.23427 -1.96452 7.32629 3.42623 -10.4566 2.3285 -0.910794 -13.3374 -64.3382 -0.998824 -3.86856 -25.191 -1.74633 -7.1881 -32.0117 77.3629 -1.04759 -20.6242 1.75213 -5.53314 -3.32793 -0.447289 9 -3.38008e-006 -5.22964e-009 34.7253 -15.6997 25.6998 -0.575 -51.431 3.90177 -4.9486 57.3797 -23.9124 2.13082e-007 -43.5882 -3.90177 14.5516 -16.6091 0.603563 
18.0532 79.0632 -94.1857 0.375095 -3.96789 -5.62522 -9 6.86154e-007 -3.19525e-009 -34.9494 -21.5726 -25.0062 0.575 -51.4311 3.90177 -5.09388 47.9899 37.2854 -7.46079e-007 -43.5882 -3.90177 -17.0478 -12.4884 -0.160412 1.23234e-007 14.8421 1.27326e-009 -2.95062 2.91785 2.53677 0.51659 29.8236 6.51843 -1.82225 -2.85791 -1.34121 1.16803e-007 7.47049 6.44171e-007 5.57011 1.513 -2.43115 6.64893 27.3161 3.27471 -2.94784 5.93879 -4.20517 10.8584 2.41798 -0.945791 4.63509 -64.0614 -20.3867 3.77631 -24.5904 -1.70468 20.0431 -23.1087 -15.7357 1.01026 -21.1231 1.74131 0.255229 -11.6016 -1.01076 -6.11406 27.2248 4.23427 -1.96452 7.32629 3.42623 -10.4566 2.3285 -0.910794 -14.5185 -63.8212 -2.27013 -3.86856 -25.191 -1.74633 -6.54472 -33.0407 76.7671 -1.04759 -20.6242 1.75213 -5.82582 -3.26586 -0.492347 9 -3.38008e-006 -5.22982e-009 34.7362 -15.6249 25.6734 -0.575 -51.431 3.90177 -4.89719 57.1533 -24.1639 2.13082e-007 -43.5882 -3.90177 14.4191 -16.3427 0.563629 
17.9694 79.1815 -94.2509 0.373874 -3.92125 -5.51508 -9 6.86154e-007 -3.19552e-009 -34.8683 -21.5134 -25.022 0.575 -51.4311 3.90177 -5.018 47.8369 37.1167 -7.46079e-007 -43.5882 -3.90177 -17.025 -12.4872 -0.159822 1.23234e-007 14.8421 1.27328e-009 -2.93963 2.86588 2.52035 0.51659 29.8236 6.51843 -1.99029 -2.44322 -1.4742 1.16803e-007 7.47049 6.44171e-007 5.82716 -0.114701 -2.5846 6.64893 27.3161 3.27471 -2.94784 5.93879 -4.20517 10.8584 2.41798 -0.945791 3.41701 -64.1901 -21.2068 3.77631 -24.5904 -1.70468 20.0945 -22.3566 -15.7358 1.01026 -21.1231 1.74131 0.314051 -11.6575 -1.0009 -6.11406 27.2248 4.23427 -1.96452 7.32629 3.42623 -10.4566 2.3285 -0.910794 -14.7943 -63.4968 -2.83821 -3.86856 -25.191 -1.74633 -6.24336 -33.6468 76.3647 -1.04759 -20.6242 1.75213 -5.58283 -3.31202 -0.455166 9 -3.38008e-006 -5.22986e-009 34.7193 -15.6285 25.6736 -0.575 -51.431 3.90177 -4.87397 56.8207 -24.3224 2.13082e-007 -43.5882 -3.90177 14.2926 -16.1183 0.529871 
17.91 79.313 -94.3041 0.391469 -4.06492 -5.45739 -9 6.86154e-007 -3.19569e-009 -34.7897 -21.2927 -24.9902 0.575 -51.4311 3.90177 -4.95259 47.6405 37.1491 -7.46079e-007 -43.5882 -3.90177 -16.9203 -12.227 -0.122015 1.23234e-007 14.8421 1.2733e-009 -3.06911 3.05194 2.51291 0.51659 29.8236 6.51843 -1.85448 -2.167 -1.6595 1.16803e-007 7.47049 6.44171e-007 5.72932 -1.67838 -2.63082 6.64893 27.3161 3.27471 -2.94784 5.93879 -4.20517 10.8584 2.41798 -0.945791 1.94121 -64.5424 -22.5081 3.77631 -24.5904 -1.70468 20.296 -21.3128 -15.9516 1.01026 -21.1231 1.74131 0.504977 -11.2492 -0.934466 -6.11406 27.2248 4.23427 -1.96452 7.32629 3.42623 -10.4566 2.3285 -0.910794 -14.7941 -63.3113 -3.26534 -3.86856 -25.191 -1.74633 -6.13417 -34.0921 75.8762 -1.04759 -20.6242 1.75213 -5.5082 -3.13869 -0.44705 9 -3.38008e-006 -5.22986e-009 34.563 -15.4608 25.5117 -0.575 -51.431 3.90177 -4.76652 56.4811 -24.4377 2.13082e-007 -43.5882 -3.90177 14.2169 -15.9809 0.509569 
17.8247 79.4163 -94.3746 0.425944 -4.08993 -5.59464 -9 6.86154e-007 -3.1956e-009 -34.6783 -21.369 -24.8743 0.575 -51.4311 3.90177 -4.98874 47.5431 37.2095 -7.46079e-007 -43.5882 -3.90177 -16.887 -12.1475 -0.110595 1.23234e-007 14.8421 1.27333e-009 -3.02431 3.12528 2.34842 0.51659 29.8236 6.51843 -1.98729 -1.91934 -1.69687 1.16803e-007 7.47049 6.44171e-007 5.63029 -3.11642 -2.62652 6.64893 27.3161 3.27471 -2.94784 5.93879 -4.20517 10.8584 2.41798 -0.945791 1.26444 -65.0588 -22.9562 3.77631 -24.5904 -1.70468 20.4628 -19.87 -16.295 1.01026 -21.1231 1.74131 0.723557 -11.1059 -0.87813 -6.11406 27.2248 4.23427 -1.96452 7.32629 3.42623 -10.4566 2.3285 -0.910794 -14.0517 -63.3081 -2.64082 -3.86856 -25.191 -1.74633 -6.04091 -34.5965 74.5416 -1.04759 -20.6242 1.75213 -5.48271 -3.11859 -0.443656 9 -3.38008e-006 -5.22984e-009 34.5294 -15.266 25.5754 -0.575 -51.431 3.90177 -4.82129 56.1661 -24.3742 2.13082e-007 -43.5882 -3.90177 14.123 -15.8508 0.489591 
17.7642 79.4929 -94.4592 0.432594 -3.96064 -5.71394 -9 6.86154e-007 -3.19543e-009 -34.5983 -21.5391 -24.8408 0.575 -51.4311 3.90177 -4.94821 47.426 37.2683 -7.46079e-007 -43.5882 -3.90177 -16.8549 -12.0746 -0.100114 1.23234e-007 14.8421 1.27336e-009 -2.81173 3.13669 1.60163 0.51659 29.8236 6.51843 -2.46819 -1.84456 -1.56914 1.16803e-007 7.47049 6.44171e-007 5.84161 -4.19238 -2.63853 6.64893 27.3161 3.27471 -2.94784 5.93879 -4.20517 10.8584 2.41798 -0.945791 2.08195 -65.5897 -21.9934 3.77631 -24.5904 -1.70468 20.361 -18.8886 -17.2271 1.01026 -21.1231 1.74131 1.10212 -10.5179 -0.764861 -6.11406 27.2248 4.23427 -1.96452 7.32629 3.42623 -10.4566 2.3285 -0.910794 -12.2193 -63.4146 -1.09014 -3.86856 -25.191 -1.74633 -5.95169 -35.4228 71.7235 -1.04759 -20.6242 1.75213 -5.33942 -2.95693 -0.425066 9 -3.38008e-006 -5.22981e-009 34.5281 -15.2837 25.604 -0.575 -51.431 3.90177 -4.82381 55.9553 -24.3861 2.13082e-007 -43.5882 -3.90177 14.0306 -15.741 0.472397 
17.7633 79.5579 -94.5186 0.519451 -3.96763 -5.7627 -9 6.86154e-007 -3.19535e-009 -34.6739 -21.5034 -24.9461 0.575 -51.4311 3.90177 -4.8588 47.2226 37.262 -7.46079e-007 -43.5882 -3.90177 -16.9011 -12.1411 -0.109967 1.23234e-007 14.8421 1.27338e-009 -2.73926 3.41158 0.325884 0.51659 29.8236 6.51843 -2.65586 -1.8342 -1.40177 1.16803e-007 7.47049 6.44171e-007 5.61365 -5.06194 -2.4632 6.64893 27.3161 3.27471 -2.94784 5.93879 -4.20517 10.8584 2.41798 -0.945791 3.82782 -66.542 -20.3469 3.77631 -24.5904 -1.70468 19.9773 -17.6993 -18.0455 1.01026 -21.1231 1.74131 1.88524 -9.60619 -0.554477 -6.11406 27.2248 4.23427 -1.96452 7.32629 3.42623 -10.4566 2.3285 -0.910794 -9.66973 -63.2675 0.809852 -3.86856 -25.191 -1.74633 -5.44377 -36.8806 67.0584 -1.04759 -20.6242 1.75213 -5.35946 -2.2127 -0.443678 9 -3.38008e-006 -5.22981e-009 34.3972 -15.2793 25.5522 -0.575 -51.431 3.90177 -4.83969 55.8733 -24.325 2.13082e-007 -43.5882 -3.90177 13.9398 -15.6244 0.454628 
17.7455 79.6324 -94.6015 0.448254 -3.89813 -5.86141 -9 6.86154e-007 -3.19538e-009 -34.5673 -21.5716 -24.9619 0.575 -51.4311 3.90177 -4.74813 47.0651 37.3226 -7.46079e-007 -43.5882 -3.90177 -16.8395 -11.9592 -0.084163 1.23234e-007 14.8421 1.27341e-009 -2.45017 3.84942 -1.23638 0.51659 29.8236 6.51843 -3.12002 -1.99873 -1.19735 1.16803e-007 7.47049 6.44171e-007 5.8075 -5.80683 -2.40206 6.64893 27.3161 3.27471 -2.94784 5.93879 -4.20517 10.8584 2.41798 -0.945791 6.94581 -68.0233 -17.506 3.77631 -24.5904 -1.70468 19.2437 -16.3088 -19.282 1.01026 -21.1231 1.74131 2.28918 -8.76622 -0.433969 -6.11406 27.2248 4.23427 -1.96452 7.32629 3.42623 -10.4566 2.3285 -0.910794 -7.29717 -62.4339 2.29512 -3.86856 -25.191 -1.74633 -3.84644 -39.8819 59.4579 -1.04759 -20.6242 1.75213 -4.3806 -1.89323 -0.313675 9 -3.38008e-006 -5.22986e-009 34.4543 -15.2811 25.6172 -0.575 -51.431 3.90177 -4.83348 55.7313 -24.2535 2.13082e-007 -43.5882 -3.90177 13.8427 -15.4732 0.432687 
17.7548 79.6652 -94.6726 0.576621 -3.81255 -6.03371 -9 6.86154e-007 -3.19552e-009 -34.7076 -21.7684 -25.0735 0.575 -51.4311 3.90177 -4.71896 47.009 37.446 -7.46079e-007 -43.5882 -3.90177 -16.8075 -11.8905 -0.0743539 1.23234e-007 14.8421 1.27344e-009 -2.38404 4.279 -3.34373 0.51659 29.8236 6.51843 -3.42836 -2.31183 -0.738524 1.16803e-007 7.47049 6.44171e-007 5.89642 -6.12267 -2.04638 6.64893 27.3161 3.27471 -2.94784 5.93879 -4.20517 10.8584 2.41798 -0.945791 12.6092 -69.8148 -12.2244 3.77631 -24.5904 -1.70468 18.5472 -14.8296 -22.5997 1.01026 -21.1231 1.74131 1.91529 -7.14265 -0.437265 -6.11406 27.2248 4.23427 -1.96452 7.32629 3.42623 -10.4566 2.3285 -0.910794 -3.98286 -61.138 4.67828 -3.86856 -25.191 -1.74633 -1.0448 -43.2775 47.9238 -1.04759 -20.6242 1.75213 -3.6955 -2.24139 -0.207079 9 -3.38008e-006 -5.23001e-009 34.3685 -15.2399 25.7112 -0.575 -51.431 3.90177 -5.00093 55.6162 -24.1707 2.13082e-007 -43.5882 -3.90177 13.7549 -15.3578 0.415593 
17.6974 79.7301 -94.6761 0.390804 -4.11324 -6.22622 -9 6.86154e-007 -3.19575e-009 -34.2997 -21.5645 -24.6844 0.575 -51.4311 3.90177 -4.79364 46.838 37.392 -7.46079e-007 -43.5882 -3.90177 -16.8201 -11.9847 -0.087331 1.23234e-007 14.8421 1.27346e-009 -1.98724 5.29752 -5.84191 0.51659 29.8236 6.51843 -4.05453 -2.63507 -0.115866 1.16803e-007 7.47049 6.44171e-007 6.38903 -6.43614 -1.68 6.64893 27.3161 3.27471 -2.94784 5.93879 -4.20517 10.8584 2.41798 -0.945791 20.6613 -71.7398 -4.76968 3.77631 -24.5904 -1.70468 17.2704 -13.1433 -24.6838 1.01026 -21.1231 1.74131 2.34021 -6.06167 -0.312717 -6.11406 27.2248 4.23427 -1.96452 7.32629 3.42623 -10.4566 2.3285 -0.910794 -0.706052 -59.4514 6.44126 -3.86856 -25.191 -1.74633 3.82553 -47.2602 36.3207 -1.04759 -20.6242 1.75213 -2.65073 -2.7382 -0.0393759 9 -3.38008e-006 -5.23024e-009 34.5457 -14.7756 25.7809 -0.575 -51.431 3.90177 -4.98346 55.4571 -24.2289 2.13082e-007 -43.5882 -3.90177 13.7786 -15.3438 0.414806 
17.7617 79.7475 -94.7491 0.448875 -3.95668 -6.18298 -9 6.86154e-007 -3.19563e-009 -34.4017 -21.6598 -24.8073 0.575 -51.4311 3.90177 -4.73061 46.7149 37.4599 -7.46079e-007 -43.5882 -3.90177 -16.7539 -11.8184 -0.0637981 1.23234e-007 14.8421 1.27349e-009 -1.83681 6.02175 -8.60057 0.51659 29.8236 6.51843 -4.60716 -2.83691 0.510505 1.16803e-007 7.47049 6.44171e-007 6.85391 -6.88768 -1.273 6.64893 27.3161 3.27471 -2.94784 5.93879 -4.20517 10.8584 2.41798 -0.945791 31.7544 -73.8721 6.23931 3.77631 -24.5904 -1.70468 15.4962 -11.2681 -27.0421 1.01026 -21.1231 1.74131 3.09505 -5.06127 -0.142713 -6.11406 27.2248 4.23427 -1.96452 7.32629 3.42623 -10.4566 2.3285 -0.910794 0.239747 -57.1326 5.68914 -3.86856 -25.191 -1.74633 11.7347 -52.6765 30.5406 -1.04759 -20.6242 1.75213 -1.46628 -3.05596 0.14859 9 -3.38008e-006 -5.23019e-009 34.4619 -15.0269 25.7386 -0.575 -51.431 3.90177 -4.97323 55.5058 -24.2512 2.13082e-007 -43.5882 -3.90177 13.7189 -15.2698 0.403794 
